<svg xmlns="http://www.w3.org/2000/svg" width="1200" height="560" viewBox="0 0 1200 560" role="img" aria-labelledby="title desc">
  <title id="title">ChatGPT Plus常见购买方式对比</title>
  <desc id="desc">比较官方银行卡、应用内购买、礼品卡、第三方协助和独立账号的控制权与风险</desc>
  <rect width="1200" height="560" rx="24" fill="#f6f8fa"/>
  <text x="600" y="62" text-anchor="middle" font-size="34" font-weight="700" fill="#24292f" font-family="Arial, PingFang SC, sans-serif">ChatGPT Plus 常见购买方式</text>
  <text x="600" y="98" text-anchor="middle" font-size="18" fill="#57606a" font-family="Arial, PingFang SC, sans-serif">先比较账号控制权、付款可行性、续费与风险</text>
  <g font-family="Arial, PingFang SC, sans-serif">
    <g transform="translate(40 140)"><rect width="208" height="330" rx="18" fill="#ffffff" stroke="#0969da" stroke-width="2"/><circle cx="104" cy="62" r="30" fill="#ddf4ff"/><text x="104" y="71" text-anchor="middle" font-size="25" fill="#0969da">卡</text><text x="104" y="125" text-anchor="middle" font-size="23" font-weight="700" fill="#24292f">官方银行卡</text><text x="104" y="171" text-anchor="middle" font-size="17" fill="#57606a">本人账号</text><text x="104" y="203" text-anchor="middle" font-size="17" fill="#57606a">自主管理续费</text><line x1="32" y1="230" x2="176" y2="230" stroke="#d0d7de"/><text x="104" y="270" text-anchor="middle" font-size="16" fill="#cf222e">注意卡片与风控</text></g>
    <g transform="translate(268 140)"><rect width="208" height="330" rx="18" fill="#ffffff" stroke="#8250df" stroke-width="2"/><circle cx="104" cy="62" r="30" fill="#fbefff"/><text x="104" y="71" text-anchor="middle" font-size="25" fill="#8250df">店</text><text x="104" y="125" text-anchor="middle" font-size="23" font-weight="700" fill="#24292f">应用内购买</text><text x="104" y="171" text-anchor="middle" font-size="17" fill="#57606a">本人账号</text><text x="104" y="203" text-anchor="middle" font-size="17" fill="#57606a">商店管理订阅</text><line x1="32" y1="230" x2="176" y2="230" stroke="#d0d7de"/><text x="104" y="270" text-anchor="middle" font-size="16" fill="#cf222e">注意地区与价格</text></g>
    <g transform="translate(496 140)"><rect width="208" height="330" rx="18" fill="#ffffff" stroke="#1a7f37" stroke-width="2"/><circle cx="104" cy="62" r="30" fill="#dafbe1"/><text x="104" y="71" text-anchor="middle" font-size="25" fill="#1a7f37">礼</text><text x="104" y="125" text-anchor="middle" font-size="23" font-weight="700" fill="#24292f">礼品卡</text><text x="104" y="171" text-anchor="middle" font-size="17" fill="#57606a">充值商店余额</text><text x="104" y="203" text-anchor="middle" font-size="17" fill="#57606a">需匹配账户地区</text><line x1="32" y1="230" x2="176" y2="230" stroke="#d0d7de"/><text x="104" y="270" text-anchor="middle" font-size="16" fill="#cf222e">注意卡源与余额</text></g>
    <g transform="translate(724 140)"><rect width="208" height="330" rx="18" fill="#ffffff" stroke="#bf8700" stroke-width="2"/><circle cx="104" cy="62" r="30" fill="#fff8c5"/><text x="104" y="71" text-anchor="middle" font-size="25" fill="#9a6700">助</text><text x="104" y="125" text-anchor="middle" font-size="23" font-weight="700" fill="#24292f">第三方协助</text><text x="104" y="171" text-anchor="middle" font-size="17" fill="#57606a">确认交付形式</text><text x="104" y="203" text-anchor="middle" font-size="17" fill="#57606a">阅读实时规则</text><line x1="32" y1="230" x2="176" y2="230" stroke="#d0d7de"/><text x="104" y="270" text-anchor="middle" font-size="16" fill="#cf222e">存在履约与隐私风险</text></g>
    <g transform="translate(952 140)"><rect width="208" height="330" rx="18" fill="#ffffff" stroke="#cf222e" stroke-width="2"/><circle cx="104" cy="62" r="30" fill="#ffebe9"/><text x="104" y="71" text-anchor="middle" font-size="25" fill="#cf222e">号</text><text x="104" y="125" text-anchor="middle" font-size="23" font-weight="700" fill="#24292f">独立账号</text><text x="104" y="171" text-anchor="middle" font-size="17" fill="#57606a">不是本人原账号</text><text x="104" y="203" text-anchor="middle" font-size="17" fill="#57606a">控制权需确认</text><line x1="32" y1="230" x2="176" y2="230" stroke="#d0d7de"/><text x="104" y="270" text-anchor="middle" font-size="16" fill="#cf222e">注意找回与历史状态</text></g>
  </g>
  <text x="600" y="525" text-anchor="middle" font-size="17" fill="#57606a" font-family="Arial, PingFang SC, sans-serif">本图为知识说明，不代表任何官方认证或购买承诺</text>
</svg>
